<?xml version="1.0" standalone="no"?>
<!DOCTYPE svg PUBLIC "-//W3C//DTD SVG 20010904//EN"
 "http://www.w3.org/TR/2001/REC-SVG-20010904/DTD/svg10.dtd">
<svg version="1.0" xmlns="http://www.w3.org/2000/svg"
 width="336.000000pt" height="148.000000pt" viewBox="0 0 336.000000 148.000000"
 preserveAspectRatio="xMidYMid meet">

<g transform="translate(0.000000,148.000000) scale(0.100000,-0.100000)"
fill="#000000" stroke="none">
<path d="M1143 1445 c-171 -38 -318 -186 -354 -356 -16 -74 -6 -202 20 -272
45 -117 153 -224 269 -267 70 -27 190 -36 261 -21 235 50 398 286 361 523 -42
275 -295 453 -557 393z m227 -213 c63 -32 122 -101 140 -169 27 -93 -4 -206
-74 -276 -49 -49 -101 -71 -184 -75 -63 -4 -79 -1 -127 23 -100 48 -155 140
-155 257 0 125 83 230 208 264 62 17 124 9 192 -24z"/>
<path d="M2019 1433 c-47 -124 -329 -899 -329 -905 0 -4 47 -8 104 -8 l104 0
35 103 34 102 168 0 168 0 35 -102 34 -103 114 0 114 0 -11 28 c-8 20 -254
698 -321 885 l-10 27 -114 0 -114 0 -11 -27z m230 -535 c1 -11 -217 -10 -223
0 -3 5 20 87 52 181 l57 173 57 -173 c31 -96 57 -177 57 -181z"/>
<path d="M236 1425 c-67 -27 -118 -72 -149 -130 -16 -30 -22 -58 -22 -115 0
-64 4 -82 28 -123 40 -67 92 -101 225 -144 162 -52 199 -88 166 -158 -42 -90
-200 -85 -312 10 l-33 28 -65 -64 -64 -63 33 -34 c17 -18 64 -49 102 -68 131
-64 289 -68 404 -9 58 29 124 99 142 151 17 51 15 149 -5 195 -37 88 -98 131
-253 178 -120 37 -163 67 -163 114 0 57 41 87 117 87 55 0 84 -9 145 -47 21
-13 39 -23 41 -23 2 0 28 27 57 60 51 60 52 61 34 82 -82 90 -297 127 -428 73z"/>
<path d="M2882 1432 c-116 -42 -182 -133 -182 -251 1 -137 63 -207 235 -262
141 -45 171 -62 185 -103 25 -76 -39 -131 -145 -123 -68 5 -107 22 -161 69
-43 38 -47 36 -119 -46 l-50 -58 40 -35 c85 -76 244 -122 367 -108 84 10 192
66 235 123 79 105 67 258 -29 348 -43 42 -95 67 -193 94 -132 37 -169 64 -163
121 8 84 143 106 250 40 l53 -33 58 63 59 64 -29 23 c-15 13 -57 38 -92 55
-56 26 -77 31 -165 34 -80 3 -112 0 -154 -15z"/>
<path d="M1965 325 c-14 -13 -25 -31 -25 -40 0 -8 -7 -15 -15 -15 -8 0 -15 -7
-15 -15 0 -9 7 -18 15 -21 11 -5 15 -22 15 -70 0 -57 2 -64 20 -64 18 0 20 7
20 64 0 59 2 65 22 68 13 2 24 11 26 21 3 13 -3 17 -23 17 -21 0 -26 4 -21 16
3 9 6 18 6 20 0 2 14 4 30 4 32 0 42 23 14 34 -28 11 -44 6 -69 -19z"/>
<path d="M10 246 c0 -86 2 -98 24 -123 21 -24 32 -28 76 -28 44 0 55 4 76 28
22 25 24 37 24 123 0 87 -1 94 -20 94 -18 0 -20 -7 -20 -72 0 -40 -3 -83 -7
-96 -7 -30 -45 -45 -78 -32 -24 9 -25 12 -25 105 0 95 0 95 -25 95 -25 0 -25
0 -25 -94z"/>
<path d="M460 320 c0 -13 7 -20 20 -20 13 0 20 7 20 20 0 13 -7 20 -20 20 -13
0 -20 -7 -20 -20z"/>
<path d="M1250 320 c0 -13 7 -20 20 -20 13 0 20 7 20 20 0 13 -7 20 -20 20
-13 0 -20 -7 -20 -20z"/>
<path d="M2150 220 l0 -120 80 0 c73 0 80 2 80 20 0 18 -7 20 -60 20 l-60 0 0
100 c0 93 -1 100 -20 100 -19 0 -20 -7 -20 -120z"/>
<path d="M2884 325 c-4 -8 -4 -24 -1 -35 4 -17 0 -20 -34 -20 -55 0 -89 -34
-89 -90 0 -54 38 -95 78 -86 15 4 39 7 55 6 l27 0 0 120 c0 101 -2 120 -15
120 -9 0 -18 -7 -21 -15z m-9 -140 c0 -45 -2 -50 -23 -53 -13 -2 -30 2 -38 8
-33 29 -2 104 40 98 18 -3 21 -10 21 -53z"/>
<path d="M1350 299 c0 -19 -5 -29 -15 -29 -8 0 -15 -9 -15 -20 0 -11 7 -20 15
-20 11 0 15 -13 15 -53 0 -77 44 -111 96 -73 20 16 14 21 -31 28 -16 3 -21 12
-23 50 -3 42 -1 47 20 50 33 5 37 38 4 38 -21 0 -26 5 -26 24 0 15 -7 26 -20
29 -17 4 -20 0 -20 -24z"/>
<path d="M260 185 c0 -78 2 -85 20 -85 18 0 20 7 20 54 0 52 16 86 40 86 24 0
40 -34 40 -86 0 -47 2 -54 20 -54 17 0 20 7 20 49 0 53 -14 101 -33 113 -18
12 -62 9 -75 -4 -9 -9 -12 -9 -12 0 0 7 -9 12 -20 12 -18 0 -20 -7 -20 -85z"/>
<path d="M460 185 c0 -78 2 -85 20 -85 18 0 20 7 20 85 0 78 -2 85 -20 85 -18
0 -20 -7 -20 -85z"/>
<path d="M540 263 c0 -5 14 -43 31 -85 27 -67 35 -78 55 -78 13 0 24 2 24 4 0
2 16 41 35 85 34 81 34 81 12 81 -19 0 -27 -10 -41 -52 -11 -29 -22 -57 -26
-62 -5 -4 -18 19 -30 53 -17 45 -28 61 -41 61 -11 0 -19 -3 -19 -7z"/>
<path d="M755 245 c-36 -35 -34 -88 4 -126 31 -31 61 -36 106 -19 41 16 26 36
-24 32 -39 -4 -71 10 -71 29 0 5 30 9 66 9 l67 0 -7 32 c-9 47 -33 68 -78 68
-28 0 -46 -7 -63 -25z m91 -22 c17 -17 16 -18 -25 -21 -51 -4 -63 4 -37 24 26
19 41 18 62 -3z"/>
<path d="M937 263 c-4 -3 -7 -42 -7 -85 0 -77 0 -78 25 -78 24 0 25 3 25 53 0
55 12 77 41 77 14 0 29 19 29 36 0 9 -49 3 -56 -7 -4 -8 -9 -8 -17 0 -12 12
-30 14 -40 4z"/>
<path d="M1086 257 c-12 -9 -17 -23 -14 -42 2 -25 10 -32 46 -45 58 -20 57
-45 -2 -37 -34 5 -45 3 -50 -9 -11 -28 62 -44 108 -22 54 24 40 81 -24 98 -25
7 -40 17 -40 27 0 13 8 15 40 10 41 -5 63 8 39 24 -21 13 -83 11 -103 -4z"/>
<path d="M1250 185 c0 -78 2 -85 20 -85 18 0 20 7 20 85 0 78 -2 85 -20 85
-18 0 -20 -7 -20 -85z"/>
<path d="M1460 266 c0 -2 18 -41 39 -87 35 -74 38 -86 27 -104 -8 -11 -22 -20
-32 -20 -11 0 -19 -7 -19 -15 0 -22 48 -24 67 -3 15 17 98 207 98 225 0 4 -9
8 -19 8 -15 0 -24 -13 -37 -55 -10 -31 -22 -54 -27 -52 -6 2 -19 26 -30 55
-16 42 -24 52 -43 52 -13 0 -24 -2 -24 -4z"/>
<path d="M1752 263 c-18 -7 -42 -57 -42 -87 0 -37 39 -76 82 -83 32 -5 41 -1
68 25 60 61 26 153 -57 151 -21 0 -44 -3 -51 -6z m80 -40 c36 -32 15 -93 -32
-93 -46 0 -67 55 -33 92 20 22 41 23 65 1z"/>
<path d="M2382 263 c-18 -7 -42 -57 -42 -88 0 -35 50 -85 85 -85 33 0 81 24
89 45 26 68 -15 136 -81 134 -21 0 -44 -3 -51 -6z m80 -40 c20 -18 24 -63 6
-81 -19 -19 -55 -14 -72 10 -21 30 -20 44 4 68 24 24 38 25 62 3z"/>
<path d="M2560 184 c0 -77 2 -84 20 -84 18 0 20 7 20 53 0 42 5 58 21 73 34
30 53 9 57 -65 3 -53 6 -61 22 -61 18 0 20 7 20 63 0 91 -14 107 -95 105 l-65
-1 0 -83z"/>
<path d="M2986 239 c-14 -17 -26 -43 -26 -58 0 -62 77 -109 131 -80 36 19 48
40 49 82 0 83 -100 120 -154 56z m96 -16 c20 -18 24 -63 6 -81 -27 -27 -88 0
-88 40 0 20 34 58 52 58 6 0 20 -7 30 -17z"/>
<path d="M3180 185 c0 -78 2 -85 20 -85 17 0 20 7 20 49 0 61 28 103 57 85 14
-8 19 -26 21 -73 3 -53 6 -61 22 -61 18 0 20 7 20 63 0 78 -17 107 -64 107
-17 0 -37 -5 -44 -12 -9 -9 -12 -9 -12 0 0 7 -9 12 -20 12 -18 0 -20 -7 -20
-85z"/>
</g>
</svg>
